<svg xmlns="http://www.w3.org/2000/svg" width="145.052" height="145.082" viewBox="0 0 145.052 145.082">
  <path id="Icon_awesome-globe" data-name="Icon awesome-globe" d="M98.427,45.023C94.186,18.9,84.182.563,72.541.563S50.9,18.9,46.654,45.023ZM44.461,73.1a183.34,183.34,0,0,0,.965,18.72h54.2a183.34,183.34,0,0,0,.965-18.72,183.341,183.341,0,0,0-.965-18.72h-54.2A183.338,183.338,0,0,0,44.461,73.1Zm94.976-28.08A72.694,72.694,0,0,0,93.221,3.6c7.137,9.887,12.051,24.775,14.625,41.418ZM51.832,3.6A72.645,72.645,0,0,0,5.645,45.023h31.59C39.78,28.38,44.695,13.491,51.832,3.6Zm90.735,50.779h-33.55c.614,6.143.965,12.431.965,18.72s-.351,12.578-.965,18.72h33.521a71.916,71.916,0,0,0,2.516-18.72A73.172,73.172,0,0,0,142.566,54.383ZM35.1,73.1c0-6.289.351-12.578.965-18.72H2.516a70.914,70.914,0,0,0,0,37.44H36.036C35.451,85.681,35.1,79.392,35.1,73.1Zm11.554,28.08C50.9,127.3,60.9,145.644,72.541,145.644s21.645-18.34,25.887-44.461ZM93.25,142.6a72.763,72.763,0,0,0,46.216-41.418h-31.59c-2.574,16.643-7.488,31.532-14.625,41.418Zm-87.6-41.418A72.694,72.694,0,0,0,51.861,142.6c-7.137-9.887-12.051-24.775-14.625-41.418H5.645Z" transform="translate(0 -0.563)" fill="#fff"/>
</svg>
