<svg xmlns="http://www.w3.org/2000/svg" width="129" height="95.556" viewBox="0 0 129 95.556">
  <path id="Icon_metro-coins" data-name="Icon metro-coins" d="M129.2,88.934H70.694a37.656,37.656,0,0,0,3.9-9.556H129.2a4.778,4.778,0,0,1,0,9.556Zm0-14.333H75.52a34.786,34.786,0,0,0,0-9.556H129.2a4.778,4.778,0,0,1,0,9.556Zm0-14.333H74.593a37.831,37.831,0,0,0-3.9-9.556H129.2a4.778,4.778,0,0,1,0,9.556Zm0-14.333H67.436a38.265,38.265,0,0,0-11.319-9.556H129.2a4.778,4.778,0,0,1,0,9.556Zm0-14.333H52.759a4.778,4.778,0,0,1,0-9.556H129.2a4.778,4.778,0,0,1,0,9.556Zm0-14.333H52.759a4.778,4.778,0,0,1,0-9.556H129.2a4.778,4.778,0,0,1,0,9.556ZM71.87,69.823A33.444,33.444,0,1,1,38.425,36.379,33.447,33.447,0,0,1,71.87,69.823Zm-21.6,3.636a10.214,10.214,0,0,0-1.882-2.981A12.315,12.315,0,0,0,45.726,68.3a30.625,30.625,0,0,0-3.043-1.629q-1.514-.7-3.043-1.357a19.861,19.861,0,0,1-2.671-1.371,6.731,6.731,0,0,1-1.882-1.672,3.609,3.609,0,0,1-.7-2.226,4.378,4.378,0,0,1,.311-1.634,3.438,3.438,0,0,1,.956-1.323,4.628,4.628,0,0,1,1.6-.86,7.172,7.172,0,0,1,2.241-.311,10.731,10.731,0,0,1,3.015.4,17.233,17.233,0,0,1,2.418.893q1.046.487,1.763.9a2.474,2.474,0,0,0,1.046.411.733.733,0,0,0,.521-.177,1.177,1.177,0,0,0,.3-.569,5.609,5.609,0,0,0,.148-.984c.029-.4.043-.893.043-1.472,0-.516-.01-.951-.029-1.295a6.765,6.765,0,0,0-.1-.87,2.712,2.712,0,0,0-.177-.554,2.261,2.261,0,0,0-.406-.5,4.759,4.759,0,0,0-1.223-.741,14.148,14.148,0,0,0-2.117-.8A18.771,18.771,0,0,0,42.119,50c-.186-.029-.377-.019-.564-.043v-4.94h-4.7v4.94a17.227,17.227,0,0,0-2.513.521,11.817,11.817,0,0,0-4.118,2.074,10.023,10.023,0,0,0-2.776,3.488,12.249,12.249,0,0,0-.315,9.025,10.252,10.252,0,0,0,1.868,3,12.259,12.259,0,0,0,2.609,2.174,27.031,27.031,0,0,0,3.015,1.629c1.037.478,2.04.927,3.015,1.357a20.053,20.053,0,0,1,2.609,1.371,7.171,7.171,0,0,1,1.868,1.672,3.624,3.624,0,0,1,.717,2.255,5.016,5.016,0,0,1-.416,2.069,4.188,4.188,0,0,1-1.209,1.553,5.675,5.675,0,0,1-1.921.97,8.856,8.856,0,0,1-2.57.344,13.452,13.452,0,0,1-3.837-.492,17.6,17.6,0,0,1-2.852-1.094,18.877,18.877,0,0,1-1.954-1.089,2.5,2.5,0,0,0-1.18-.492.866.866,0,0,0-.521.162,1.078,1.078,0,0,0-.358.554,4.629,4.629,0,0,0-.2,1.018c-.043.42-.062.936-.062,1.553a10.585,10.585,0,0,0,.162,2.107,2.2,2.2,0,0,0,.554,1.118,6.36,6.36,0,0,0,1.266.889,13.066,13.066,0,0,0,2.193.96,22.359,22.359,0,0,0,3.029.784,20.14,20.14,0,0,0,3.717.32c.057,0,.11-.01.172-.01v4.6h4.7V89.125c.225-.057.463-.086.683-.148a13.45,13.45,0,0,0,4.539-2.312,11.055,11.055,0,0,0,3.077-3.832,11.944,11.944,0,0,0,1.128-5.342,10.432,10.432,0,0,0-.707-4.032ZM67.436,93.712H129.2a4.778,4.778,0,0,1,0,9.556H56.117a38.264,38.264,0,0,0,11.319-9.556Z" transform="translate(-4.981 -7.712)" fill="#fff"/>
</svg>
