<svg xmlns="http://www.w3.org/2000/svg" width="140.356" height="129.5" viewBox="0 0 140.356 129.5">
  <path id="Icon_ionic-ios-text" data-name="Icon ionic-ios-text" d="M73.52,4.5C34.771,4.5,3.375,29.86,3.375,61.155c0,21.886,15.378,40.873,37.871,50.315-1.754,8.7-7.082,15.85-11.3,20.4A1.338,1.338,0,0,0,31.163,134a54.258,54.258,0,0,0,17.2-4.283c7.251-3.339,13.59-10.151,15.614-12.444a89.782,89.782,0,0,0,9.611.54c38.748,0,70.145-25.36,70.145-56.655C143.664,29.86,112.268,4.5,73.52,4.5Z" transform="translate(-3.375 -4.5)" fill="#fff"/>
</svg>
