<svg xmlns="http://www.w3.org/2000/svg" width="50.5" height="44.188" viewBox="0 0 50.5 44.188">
  <path id="Icon_awesome-camera" data-name="Icon awesome-camera" d="M50.5,13.3V41.7a4.736,4.736,0,0,1-4.734,4.734H4.734A4.736,4.736,0,0,1,0,41.7V13.3A4.736,4.736,0,0,1,4.734,8.563h8.68l1.213-3.245A4.728,4.728,0,0,1,19.056,2.25H31.434a4.728,4.728,0,0,1,4.429,3.067l1.223,3.245h8.68A4.736,4.736,0,0,1,50.5,13.3ZM37.086,27.5A11.836,11.836,0,1,0,25.25,39.336,11.845,11.845,0,0,0,37.086,27.5Zm-3.156,0a8.68,8.68,0,1,1-8.68-8.68A8.692,8.692,0,0,1,33.93,27.5Z" transform="translate(0 -2.25)" fill="#868686"/>
</svg>
