<svg xmlns="http://www.w3.org/2000/svg" width="41.125" height="47" viewBox="0 0 41.125 47">
  <path id="Icon_metro-attachment" data-name="Icon metro-attachment" d="M32.627,16.939l-2.981-2.98L14.737,28.864a6.324,6.324,0,0,0,8.944,8.943L41.572,19.92a10.54,10.54,0,0,0-14.907-14.9L7.881,23.8c-.013.014-.028.026-.04.039A14.7,14.7,0,0,0,28.633,44.623l.038-.04v0L41.493,31.765l-2.983-2.98L25.689,41.6c-.014.012-.026.026-.039.039A10.484,10.484,0,0,1,10.822,26.818l.041-.039,0,0L29.646,8a6.324,6.324,0,0,1,8.945,8.943L20.7,34.826a2.108,2.108,0,0,1-2.982-2.98L32.627,16.939Z" transform="translate(-3.535 -1.928)" fill="#868686"/>
</svg>
